<svg width="93" height="78" viewBox="0 0 93 78" fill="none" xmlns="http://www.w3.org/2000/svg">
<g id="Group 48">
<path id="Rectangle 157" d="M92.0159 60C92.0159 69.9411 83.957 78 74.0159 78L47.0159 78C44.2544 78 42.0159 75.7614 42.0159 73L42.0159 39C42.0159 33.4772 46.493 29 52.0159 29L87.0159 29C89.7773 29 92.0159 31.2386 92.0159 34L92.0159 60Z" fill="#FFF1DA"/>
<g id="satellite-dish">
<g id="Group">
<path id="Vector" d="M23.5427 50.6574L21.6546 49.7535L10.438 66.3382H22.9559L24.1622 65.5516V51.225L23.5427 50.6574Z" fill="#407093"/>
<path id="Vector_2" d="M21.8255 49.8353L17.5804 47.803H16.7803L4.77661 65.5516L5.49124 66.3382H10.6643L21.8255 49.8353Z" fill="#365E7D"/>
<path id="Vector_3" d="M26.416 65.5515H9.86353C9.11158 65.5515 8.50195 66.161 8.50195 66.9131V68.6385C8.50195 69.3903 9.11144 69.9998 9.86326 69.9999H26.416C27.168 69.9999 27.7776 69.3904 27.7776 68.6385V66.9131C27.7776 66.161 27.168 65.5515 26.416 65.5515Z" fill="#4A80AA"/>
<path id="Vector_4" d="M8.78362 68.6385V66.9131C8.78362 66.1611 9.39325 65.5515 10.1452 65.5515H1.37745C0.625496 65.5515 0.0158691 66.161 0.0158691 66.9131V68.6385C0.0158691 69.3904 0.625496 69.9999 1.37745 69.9999H10.1451C9.39311 69.9999 8.78362 69.3904 8.78362 68.6385Z" fill="#407093"/>
<path id="Vector_5" d="M21.2557 39.9827C20.7462 41.0338 20.4583 42.2123 20.4583 43.459C20.4583 46.8659 22.5916 49.7721 25.5942 50.9218C26.8833 50.5179 28.0288 49.7893 28.9336 48.8301V47.0893L21.2557 39.9827Z" fill="#4A80AA"/>
<path id="Vector_6" d="M20.5926 43.4863C20.5926 42.2684 20.8742 41.1173 21.3728 40.0909L18.9186 37.8192H17.9227C16.4168 39.2399 15.4753 41.2525 15.4753 43.4862C15.4753 47.7893 18.9636 51.2775 23.2666 51.2775C24.163 51.2775 25.0225 51.1237 25.8237 50.8449C22.7787 49.7856 20.5926 46.8921 20.5926 43.4863Z" fill="#407093"/>
<path id="Vector_7" d="M65.8279 0.924695C64.595 -0.308232 62.596 -0.308232 61.3632 0.924695L58.3503 3.93756V4.31941L62.1108 8.23954L62.815 8.40223L65.8277 5.38937C67.0608 4.15658 67.0608 2.15762 65.8279 0.924695Z" fill="#FFD086"/>
<path id="Vector_8" d="M66.6608 2.41492C66.5292 1.86915 66.2539 1.35085 65.8279 0.924695C64.595 -0.308232 62.596 -0.308232 61.3632 0.924695L58.3503 3.93756V4.31941L60.3441 6.3978C61.5327 5.16091 62.7129 3.94029 63.3198 3.3334C64.3315 2.32182 65.8091 2.31403 66.6608 2.41492Z" fill="#FFC365"/>
<g id="Group_2">
<path id="Vector_9" d="M55.5132 8.95026C55.4786 8.95026 55.4436 8.94848 55.4085 8.94507L20.5921 5.51808C20.0114 5.46094 19.5872 4.944 19.6443 4.36336C19.7015 3.78272 20.2187 3.35875 20.799 3.41549L55.6155 6.84234C56.196 6.89949 56.6203 7.41642 56.5632 7.99706C56.5095 8.5427 56.05 8.95026 55.5132 8.95026Z" fill="#365E7D"/>
</g>
<g id="Group_3">
<path id="Vector_10" d="M30.6618 15.4681C30.1933 15.4681 29.7652 15.1539 29.6408 14.6795C29.4927 14.1151 29.8303 13.5377 30.3945 13.3896L55.2446 6.87154C55.8088 6.72374 56.3865 7.06103 56.5344 7.6254C56.6825 8.18964 56.345 8.76714 55.7807 8.9152L30.9306 15.4333C30.8406 15.4568 30.7504 15.4681 30.6618 15.4681Z" fill="#407093"/>
</g>
<g id="Group_4">
<path id="Vector_11" d="M62.2624 47.136C61.7252 47.136 61.2657 46.7281 61.2122 46.1823L57.8066 11.3445C57.7499 10.764 58.1745 10.2472 58.7551 10.1903C59.3358 10.1362 59.8525 10.5584 59.9092 11.139L63.3148 45.9768C63.3716 46.5573 62.9469 47.0741 62.3663 47.131C62.3314 47.1342 62.2967 47.136 62.2624 47.136Z" fill="#365E7D"/>
</g>
<g id="Group_5">
<path id="Vector_12" d="M52.2411 37.2475C52.1515 37.2475 52.0605 37.2359 51.9697 37.212C51.4057 37.0624 51.0698 36.4841 51.2194 35.9201L57.8334 10.9741C57.9829 10.41 58.561 10.0746 59.1251 10.2236C59.6891 10.3732 60.025 10.9515 59.8755 11.5155L53.2614 36.4615C53.1361 36.9348 52.7085 37.2475 52.2411 37.2475Z" fill="#407093"/>
</g>
<path id="Vector_13" d="M55.3228 6.96429L58.3433 3.94376L62.8073 8.40782L59.7868 11.4284L55.3228 6.96429Z" fill="#FFC365"/>
<path id="Vector_14" d="M57.6166 9.24573C58.3426 8.48557 59.4763 7.29995 60.5728 6.15999L58.3504 3.9375L55.3293 6.95843L57.6166 9.24573Z" fill="#FFA90F"/>
<g id="Group_6">
<path id="Vector_15" d="M60.4668 13.1519C60.1965 13.1519 59.926 13.0487 59.7199 12.8425L53.9103 7.03305C53.4977 6.62044 53.4977 5.95175 53.9103 5.53899C54.3228 5.12665 54.9916 5.12665 55.4042 5.53899L61.2138 11.3484C61.6264 11.761 61.6264 12.4297 61.2138 12.8425C61.0075 13.0488 60.7372 13.1519 60.4668 13.1519Z" fill="#4A80AA"/>
</g>
<path id="Vector_16" d="M61.1484 49.0376L25.7776 13.36C21.0882 23.9466 20.2739 35.3114 23.7845 45.1115C33.4801 53.8573 47.9633 55.2003 61.2966 49.7026L61.1484 49.0376Z" fill="#B5DCFF"/>
<g id="Group_7">
<path id="Vector_17" d="M25.966 13.55L17.862 5.37573L17.0499 5.45585C11.3403 19.3031 13.0074 34.3917 22.6841 44.0684C23.2702 44.6545 23.8767 45.2107 24.501 45.7383C20.4219 35.9498 21.0849 24.3077 25.966 13.55Z" fill="#8BCAFF"/>
</g>
<path id="Vector_18" d="M64.381 46.5017L28.5074 10.6282C28.1544 10.6826 27.8145 10.8431 27.5427 11.1149L25.9824 12.6754C25.6473 13.0105 25.4806 13.4481 25.4758 13.8874L61.2356 49.647C61.7673 50.1787 62.6293 50.1787 63.161 49.647L64.3811 48.4271C64.9127 47.8955 64.9126 47.0334 64.381 46.5017Z" fill="#DBEDFF"/>
<path id="Vector_19" d="M26.036 12.7021L27.5639 11.1743C27.8452 10.8929 28.2006 10.7318 28.5672 10.6882L20.2509 2.37192C19.7192 1.84022 18.8572 1.84022 18.3254 2.37192L17.1053 3.59199C16.5736 4.12369 16.5736 4.9857 17.1053 5.5174L25.5385 13.9506C25.5274 13.5 25.6922 13.0459 26.036 12.7021Z" fill="#B5DCFF"/>
</g>
</g>
</g>
</svg>
