<svg width="167" height="154" viewBox="0 0 167 154" fill="none" xmlns="http://www.w3.org/2000/svg">
<g id="Group 51">
<path id="Rectangle 158" d="M47.6064 72.9058C47.6064 82.8469 55.6653 90.9058 65.6064 90.9058L92.6064 90.9058C95.3679 90.9058 97.6064 88.6672 97.6064 85.9058L97.6064 51.9058C97.6064 46.383 93.1293 41.9058 87.6064 41.9058L52.6064 41.9058C49.845 41.9058 47.6064 44.1444 47.6064 46.9058L47.6064 72.9058Z" fill="#FFF1DA"/>
<g id="plane">
<g id="Group">
<path id="Vector" d="M96.1902 86.8472C94.8319 87.1514 93.5089 87.715 92.3033 88.5024C89.1626 90.5037 87.3353 93.3604 88.2222 94.8826C89.1091 96.4047 92.3742 96.0154 95.515 94.0141C96.7368 93.2545 97.8221 92.2837 98.7043 91.1618C99.1137 90.6197 99.1872 89.9442 98.8919 89.4393L97.7397 87.4619C97.4466 86.9554 96.8385 86.7145 96.1902 86.8472Z" fill="#D5D6DB"/>
<path id="Vector_2" d="M88.3033 59.8541C87.3184 60.0748 86.359 60.4837 85.4847 61.0547C83.2079 62.5055 81.8821 64.5769 82.5247 65.6797C83.1673 66.7825 85.5358 66.4999 87.8124 65.0493C88.6983 64.4982 89.4852 63.794 90.125 62.9803C90.4215 62.5874 90.4746 62.098 90.2606 61.732L89.4263 60.3002C89.214 59.933 88.7734 59.758 88.3033 59.8541Z" fill="#D5D6DB"/>
<path id="Vector_3" d="M75.4891 60.9845C75.2699 60.9601 75.0361 61.0185 74.8333 61.148L69.4851 64.5562C69.0378 64.8404 68.8588 65.3878 69.0857 65.779C69.1376 65.8686 69.2086 65.9451 69.2948 66.0041L82.4765 75.0891L100.31 63.7244L75.4891 60.9845Z" fill="#029BC5"/>
<path id="Vector_4" d="M131.866 59.6999L83.334 90.252L54.6213 101.677L39.9781 104.588L38.3672 101.851L119.262 51.9043C121.673 50.4095 124.359 49.4919 127.048 49.2448C128.225 49.1429 129.388 49.1821 130.509 49.3609C131.503 49.5116 132.446 49.8023 133.31 50.2244C134.274 50.7026 136.108 50.7578 136.702 51.7106C136.704 51.7091 138.106 56.0835 131.866 59.6999Z" fill="#E1E6E9"/>
<path id="Vector_5" d="M83.9774 86.2095L62.9821 119.679C62.7199 120.15 62.8755 120.676 63.3294 120.855C63.608 120.965 63.9489 120.922 64.2353 120.74L69.5793 117.35C70.6072 116.697 71.5173 115.869 72.2534 114.915L112.97 67.0462L83.9774 86.2095Z" fill="#029BC5"/>
<path id="Vector_6" d="M30.9978 85.092C30.6475 84.9723 30.2308 85.0344 29.8789 85.2584L25.4614 88.0718C24.8595 88.4549 24.6197 89.1913 24.9255 89.717C24.9838 89.8169 25.0595 89.9049 25.1502 89.9773L37.527 99.8896L50.54 91.7615L30.9978 85.092Z" fill="#029BC5"/>
<path id="Vector_7" d="M41.6753 101.677L35.0138 111.006C34.9162 111.14 34.9392 111.308 35.0651 111.382C35.1559 111.435 35.28 111.425 35.3807 111.358L39.509 108.742C39.541 108.721 39.5701 108.696 39.5941 108.667L49.3276 96.832L41.6753 101.677Z" fill="#029BC5"/>
<path id="Vector_8" d="M129.712 49.7631C128.558 49.5777 127.36 49.5381 126.147 49.6447C124.967 51.2958 124.212 53.1505 123.958 55.0239C123.94 55.4002 124.243 55.6711 124.636 55.6289C124.758 55.6156 124.88 55.5727 124.989 55.504L132.597 50.6597C131.707 50.2211 130.736 49.9193 129.712 49.7631Z" fill="#029BC5"/>
<path id="Vector_9" d="M113.133 58.6712L118.1 55.5342L122.727 63.4033L117.76 66.5402L113.133 58.6712Z" fill="#D5D6DB"/>
<g id="Group_2">
<path id="Vector_10" d="M110.008 61.7834C109.409 62.1626 109.17 62.8914 109.474 63.4111L109.966 64.2531C110.29 64.7595 111.029 64.8486 111.618 64.4519C112.178 64.0741 112.403 63.3874 112.133 62.8804L111.641 62.0384C111.337 61.5191 110.606 61.4049 110.008 61.7834Z" fill="#3A556A"/>
<path id="Vector_11" d="M105.544 64.5559C104.945 64.935 104.706 65.6638 105.01 66.1835L105.502 67.0255C105.826 67.532 106.565 67.621 107.153 67.2243C107.713 66.8465 107.939 66.1599 107.669 65.6528L107.177 64.8109C106.873 64.2918 106.142 64.1775 105.544 64.5559Z" fill="#3A556A"/>
<path id="Vector_12" d="M101.078 67.3292C100.48 67.7089 100.241 68.4368 100.545 68.956L101.037 69.798C101.361 70.3044 102.1 70.3935 102.689 69.9968C103.249 69.619 103.474 68.9324 103.204 68.4254L102.712 67.5834C102.408 67.0637 101.676 66.9499 101.078 67.3292Z" fill="#3A556A"/>
<path id="Vector_13" d="M96.6133 70.1016C96.0154 70.4813 95.7771 71.2092 96.0807 71.7285L96.573 72.5704C96.8968 73.0769 97.6361 73.166 98.2244 72.7693C98.7842 72.3915 99.0097 71.7048 98.7399 71.1978L98.2476 70.3558C97.9434 69.8362 97.2119 69.7224 96.6133 70.1016Z" fill="#3A556A"/>
<path id="Vector_14" d="M92.1494 72.8743C91.5511 73.2541 91.3126 73.9823 91.6164 74.5018L92.109 75.3441C92.4127 75.8634 93.1439 75.9771 93.7423 75.5981C94.3407 75.2191 94.5796 74.491 94.2759 73.9717L93.7833 73.1294C93.4804 72.6096 92.7494 72.4951 92.1506 72.8735C92.1501 72.8738 92.1499 72.8739 92.1494 72.8743Z" fill="#3A556A"/>
<path id="Vector_15" d="M87.685 75.6467C87.0868 76.0265 86.8482 76.7548 87.152 77.2743L87.6446 78.1166C87.9483 78.6359 88.6796 78.7496 89.2779 78.3706C89.8763 77.9916 90.1152 77.2634 89.8115 76.7442L89.3189 75.9018C89.016 75.3821 88.285 75.2676 87.6863 75.6459C87.6858 75.6462 87.6853 75.6466 87.685 75.6467Z" fill="#3A556A"/>
<path id="Vector_16" d="M83.2204 78.4193C82.6222 78.7991 82.3836 79.5273 82.6874 80.0468L83.18 80.8891C83.4845 81.4078 84.2161 81.5204 84.8138 81.1409C85.4105 80.7621 85.6489 80.0355 85.3466 79.5168L84.854 78.6745C84.5505 78.1549 83.8193 78.0406 83.2204 78.4193Z" fill="#3A556A"/>
<path id="Vector_17" d="M78.7558 81.1918C78.1576 81.5716 77.919 82.2998 78.2228 82.8193L78.7154 83.6616C79.0199 84.1804 79.7515 84.293 80.3492 83.9135C80.9459 83.5347 81.1843 82.808 80.882 82.2894L80.3894 81.447C80.0859 80.9274 79.3547 80.8131 78.7558 81.1918Z" fill="#3A556A"/>
<path id="Vector_18" d="M74.2914 83.9642C73.6932 84.344 73.4547 85.0722 73.7585 85.5917L74.2511 86.434C74.5555 86.9528 75.2871 87.0653 75.8848 86.6859C76.4815 86.307 76.7199 85.5804 76.4177 85.0617L75.9251 84.2194C75.6213 83.7 74.8901 83.5856 74.2914 83.9642Z" fill="#3A556A"/>
<path id="Vector_19" d="M69.8256 86.7374C69.2273 87.1164 68.9884 87.8446 69.292 88.3639L69.2927 88.365L69.7853 89.2073C70.0897 89.7261 70.8213 89.8387 71.419 89.4592C72.0157 89.0803 72.2541 88.3537 71.9519 87.835L71.4593 86.9927C71.1557 86.473 70.4245 86.3587 69.8256 86.7374Z" fill="#3A556A"/>
<path id="Vector_20" d="M65.3625 89.5091C64.7641 89.8881 64.5252 90.6163 64.8289 91.1355L64.8295 91.1366L65.3221 91.9789C65.6266 92.4977 66.3582 92.6103 66.9559 92.2308C67.5526 91.852 67.791 91.1253 67.4888 90.6067L66.9962 89.7644C66.6924 89.2449 65.9611 89.1306 65.3625 89.5091Z" fill="#3A556A"/>
</g>
</g>
</g>
</g>
</svg>
