<svg width="78" height="66" viewBox="0 0 78 66" fill="none" xmlns="http://www.w3.org/2000/svg">
<g id="Group 49">
<path id="Rectangle 160" d="M27.0159 48C27.0159 57.9411 35.0747 66 45.0159 66L72.0159 66C74.7773 66 77.0159 63.7614 77.0159 61L77.0159 27C77.0159 21.4772 72.5387 17 67.0159 17L32.0159 17C29.2544 17 27.0159 19.2386 27.0159 22L27.0159 48Z" fill="#FFF1DA"/>
<g id="power-supply 1">
<g id="Group">
<path id="Vector" d="M50.0159 27.8482V22.1518C50.0159 21.0351 49.1106 20.1299 47.9939 20.1299H45.8152C44.9441 20.1299 44.1712 19.5717 43.8973 18.7448C43.5923 17.8235 43.2217 16.9322 42.7911 16.0763C42.3989 15.2967 42.549 14.3542 43.166 13.7371L44.7075 12.1957C45.4971 11.406 45.4971 10.1259 44.7075 9.33622L40.6795 5.30825C39.8899 4.51861 38.6097 4.51861 37.8201 5.30825L36.2786 6.8497C35.6615 7.4668 34.7191 7.6168 33.9395 7.22465C33.0836 6.79406 32.1922 6.42344 31.271 6.11841C30.444 5.84457 29.8859 5.07163 29.8859 4.2005V2.02193C29.8859 0.905231 28.9806 0 27.8639 0H22.1676C21.0509 0 20.1456 0.905231 20.1456 2.02193V4.2006C20.1456 5.07173 19.5875 5.84467 18.7605 6.11851C17.8393 6.42354 16.9479 6.79417 16.092 7.22475C15.3124 7.6169 14.37 7.4668 13.7529 6.8498L12.2114 5.30835C11.4218 4.51871 10.1416 4.51871 9.35197 5.30835L5.3242 9.33632C4.53456 10.126 4.53456 11.4061 5.3242 12.1958L6.86565 13.7372C7.48265 14.3543 7.63275 15.2968 7.2406 16.0764C6.81002 16.9323 6.43939 17.8236 6.13436 18.7449C5.9408 19.3293 5.49804 19.7794 4.94754 19.9932C4.71907 20.0819 4.57259 20.2305 4.31706 20.2305H2.13839C1.02169 20.2305 0.116455 21.1357 0.116455 22.2524V27.7476C0.116455 28.8643 1.02169 29.7695 2.13839 29.7695H4.31706C5.18819 29.7695 5.96112 30.4283 6.23497 31.2552C6.54 32.1765 6.91062 33.0677 7.3412 33.9237C7.73336 34.7033 7.58326 35.6458 6.96625 36.2629L5.52541 37.8043C4.73577 38.594 4.73577 39.8741 5.52541 40.6638L9.35217 44.4905C10.1418 45.2802 11.422 45.2802 12.2116 44.4905L13.7531 42.9491C14.3701 42.332 15.3126 42.182 16.0922 42.5741C16.9481 43.0047 18.0407 43.476 18.9619 43.781C19.7889 44.0548 20.347 44.8278 20.347 45.6989V47.8776C20.347 48.9943 21.2523 49.8995 22.369 49.8995H27.7635C28.8802 49.8995 29.7855 48.9943 29.7855 47.8776V45.6989C29.7855 45.4434 29.9341 45.2969 30.0228 45.0684C30.2366 44.5179 30.6868 44.0751 31.2711 43.8816C32.1923 43.5766 33.0837 43.2059 33.9396 42.7754C34.7192 42.3832 35.6616 42.5333 36.2787 43.1503L37.8202 44.6917C38.6098 45.4814 39.89 45.4814 40.6796 44.6917L44.7076 40.6638C45.4972 39.8741 45.4972 38.594 44.7076 37.8043L43.1662 36.2629C42.5491 35.6458 42.3991 34.7033 42.7912 33.9237C43.2218 33.0678 43.5924 32.1765 43.8974 31.2552C44.1713 30.4283 44.9442 29.8701 45.8153 29.8701H47.994C49.1106 29.8701 50.0159 28.9649 50.0159 27.8482Z" fill="#B6C4CF"/>
<path id="Vector_2" d="M30.0229 45.0684C29.9344 45.2967 29.8861 45.5442 29.8861 45.7998V47.9778C29.8861 49.0945 28.9807 50 27.864 50H22.1678C21.0511 50 20.1456 49.0945 20.1456 47.9778V45.7998C20.1456 44.9285 19.5873 44.1549 18.7603 43.8812C17.8398 43.5764 16.9485 43.2062 16.0923 42.7756C15.3126 42.3833 14.37 42.5332 13.7533 43.1499L12.212 44.6911C11.4223 45.4808 10.1416 45.4808 9.35188 44.6911L5.32372 40.6639C4.53498 39.8742 4.53498 38.5935 5.32372 37.8038L6.86597 36.2625C7.48267 35.6458 7.63257 34.7032 7.24021 33.9235C6.80963 33.0674 6.43941 32.176 6.13458 31.2555C5.86094 30.4285 5.0873 29.8702 4.21607 29.8702H2.038C0.921302 29.8702 0.0158691 28.9648 0.0158691 27.8481V22.1519C0.0158691 21.0352 0.921302 20.1297 2.038 20.1297H4.21607C4.4716 20.1297 4.71909 20.0815 4.94746 19.9929C4.94545 20.1187 4.94444 20.2454 4.94444 20.3722C4.94444 34.013 16.0028 45.0714 29.6436 45.0714C29.7704 45.0714 29.8972 45.0704 30.0229 45.0684Z" fill="#9FACBA"/>
<path id="Vector_3" d="M25.0159 41.5996C34.1836 41.5996 41.6155 34.1677 41.6155 25C41.6155 15.8323 34.1836 8.40039 25.0159 8.40039C15.8482 8.40039 8.41626 15.8323 8.41626 25C8.41626 34.1677 15.8482 41.5996 25.0159 41.5996Z" fill="#9FACBA"/>
<path id="Vector_4" d="M25.016 38.0784C32.239 38.0784 38.0944 32.223 38.0944 25C38.0944 17.7769 32.239 11.9215 25.016 11.9215C17.7929 11.9215 11.9375 17.7769 11.9375 25C11.9375 32.223 17.7929 38.0784 25.016 38.0784Z" fill="#F8F7F7"/>
</g>
</g>
</g>
</svg>
